<mxfile host="app.diagrams.net" agent="Mozilla/5.0 (Windows NT 10.0; Win64; x64) AppleWebKit/537.36 (KHTML, like Gecko) Chrome/128.0.0.0 Safari/537.36 Edg/128.0.0.0" version="24.7.14">
  <diagram name="第 1 页" id="9upD9VpD8PzAfyVtx7UW">
    <mxGraphModel dx="1042" dy="531" grid="1" gridSize="10" guides="1" tooltips="1" connect="1" arrows="1" fold="1" page="1" pageScale="1" pageWidth="827" pageHeight="1169" math="0" shadow="0">
      <root>
        <mxCell id="0" />
        <mxCell id="1" parent="0" />
        <mxCell id="N-s2DV5ZsmPViQI8oDyz-4" value="" style="edgeStyle=orthogonalEdgeStyle;rounded=0;orthogonalLoop=1;jettySize=auto;html=1;" edge="1" parent="1" source="N-s2DV5ZsmPViQI8oDyz-1" target="N-s2DV5ZsmPViQI8oDyz-3">
          <mxGeometry relative="1" as="geometry" />
        </mxCell>
        <mxCell id="N-s2DV5ZsmPViQI8oDyz-1" value="GSE19439&lt;div&gt;&lt;font face=&quot;Helvetica&quot;&gt;PB = 12&lt;br&gt;&lt;/font&gt;&lt;div&gt;&lt;div&gt;Control = 13&lt;/div&gt;&lt;/div&gt;&lt;/div&gt;" style="rounded=1;whiteSpace=wrap;html=1;" vertex="1" parent="1">
          <mxGeometry x="180" y="130" width="120" height="60" as="geometry" />
        </mxCell>
        <mxCell id="N-s2DV5ZsmPViQI8oDyz-5" style="edgeStyle=orthogonalEdgeStyle;rounded=0;orthogonalLoop=1;jettySize=auto;html=1;entryX=0.5;entryY=0;entryDx=0;entryDy=0;" edge="1" parent="1" source="N-s2DV5ZsmPViQI8oDyz-2" target="N-s2DV5ZsmPViQI8oDyz-3">
          <mxGeometry relative="1" as="geometry" />
        </mxCell>
        <mxCell id="N-s2DV5ZsmPViQI8oDyz-2" value="GSE28623&lt;div&gt;&lt;font face=&quot;Helvetica&quot;&gt;PB = 45&lt;br&gt;&lt;/font&gt;&lt;div&gt;&lt;div&gt;Control = 35&lt;/div&gt;&lt;/div&gt;&lt;/div&gt;" style="rounded=1;whiteSpace=wrap;html=1;" vertex="1" parent="1">
          <mxGeometry x="380" y="130" width="120" height="60" as="geometry" />
        </mxCell>
        <mxCell id="N-s2DV5ZsmPViQI8oDyz-15" style="edgeStyle=orthogonalEdgeStyle;rounded=0;orthogonalLoop=1;jettySize=auto;html=1;entryX=0.5;entryY=0;entryDx=0;entryDy=0;" edge="1" parent="1" source="N-s2DV5ZsmPViQI8oDyz-3" target="N-s2DV5ZsmPViQI8oDyz-6">
          <mxGeometry relative="1" as="geometry" />
        </mxCell>
        <mxCell id="N-s2DV5ZsmPViQI8oDyz-3" value="Data merge" style="rounded=1;whiteSpace=wrap;html=1;" vertex="1" parent="1">
          <mxGeometry x="270" y="280" width="120" height="60" as="geometry" />
        </mxCell>
        <mxCell id="N-s2DV5ZsmPViQI8oDyz-16" style="edgeStyle=orthogonalEdgeStyle;rounded=0;orthogonalLoop=1;jettySize=auto;html=1;entryX=0.5;entryY=0;entryDx=0;entryDy=0;" edge="1" parent="1" source="N-s2DV5ZsmPViQI8oDyz-6" target="N-s2DV5ZsmPViQI8oDyz-14">
          <mxGeometry relative="1" as="geometry" />
        </mxCell>
        <mxCell id="N-s2DV5ZsmPViQI8oDyz-6" value="Combined Dataset&lt;div&gt;PB = 57&lt;/div&gt;&lt;div&gt;Control = 48&lt;/div&gt;" style="rounded=1;whiteSpace=wrap;html=1;" vertex="1" parent="1">
          <mxGeometry x="270" y="430" width="120" height="60" as="geometry" />
        </mxCell>
        <mxCell id="N-s2DV5ZsmPViQI8oDyz-7" value="&lt;span style=&quot;font-size:10.5pt;mso-bidi-font-size:&lt;br/&gt;11.0pt;font-family:&amp;quot;Times New Roman&amp;quot;,serif;mso-fareast-font-family:宋体;&lt;br/&gt;mso-font-kerning:1.0pt;mso-ansi-language:EN-US;mso-fareast-language:ZH-CN;&lt;br/&gt;mso-bidi-language:AR-SA&quot; lang=&quot;EN-US&quot;&gt;PTDEGs&lt;/span&gt;" style="shape=parallelogram;perimeter=parallelogramPerimeter;whiteSpace=wrap;html=1;fixedSize=1;" vertex="1" parent="1">
          <mxGeometry x="90" y="585" width="120" height="60" as="geometry" />
        </mxCell>
        <mxCell id="N-s2DV5ZsmPViQI8oDyz-10" style="edgeStyle=orthogonalEdgeStyle;rounded=0;orthogonalLoop=1;jettySize=auto;html=1;entryX=0;entryY=0.5;entryDx=0;entryDy=0;" edge="1" parent="1" source="N-s2DV5ZsmPViQI8oDyz-8" target="N-s2DV5ZsmPViQI8oDyz-11">
          <mxGeometry relative="1" as="geometry">
            <mxPoint x="570" y="705" as="targetPoint" />
          </mxGeometry>
        </mxCell>
        <mxCell id="N-s2DV5ZsmPViQI8oDyz-13" style="edgeStyle=orthogonalEdgeStyle;rounded=0;orthogonalLoop=1;jettySize=auto;html=1;entryX=0;entryY=0.5;entryDx=0;entryDy=0;" edge="1" parent="1" source="N-s2DV5ZsmPViQI8oDyz-8" target="N-s2DV5ZsmPViQI8oDyz-12">
          <mxGeometry relative="1" as="geometry" />
        </mxCell>
        <mxCell id="N-s2DV5ZsmPViQI8oDyz-8" value="&amp;nbsp; &amp;nbsp; &amp;nbsp;Enrichment&amp;nbsp;&amp;nbsp;&lt;div&gt;Analysis&lt;div&gt;&lt;br&gt;&lt;/div&gt;&lt;/div&gt;" style="shape=parallelogram;perimeter=parallelogramPerimeter;whiteSpace=wrap;html=1;fixedSize=1;" vertex="1" parent="1">
          <mxGeometry x="370" y="720" width="120" height="60" as="geometry" />
        </mxCell>
        <mxCell id="N-s2DV5ZsmPViQI8oDyz-11" value="GO" style="rounded=1;whiteSpace=wrap;html=1;" vertex="1" parent="1">
          <mxGeometry x="610" y="675" width="120" height="60" as="geometry" />
        </mxCell>
        <mxCell id="N-s2DV5ZsmPViQI8oDyz-12" value="KEGG" style="rounded=1;whiteSpace=wrap;html=1;" vertex="1" parent="1">
          <mxGeometry x="610" y="765" width="120" height="60" as="geometry" />
        </mxCell>
        <mxCell id="N-s2DV5ZsmPViQI8oDyz-18" style="edgeStyle=orthogonalEdgeStyle;rounded=0;orthogonalLoop=1;jettySize=auto;html=1;entryX=1;entryY=0.5;entryDx=0;entryDy=0;strokeColor=default;endArrow=none;endFill=0;" edge="1" parent="1" source="N-s2DV5ZsmPViQI8oDyz-14" target="N-s2DV5ZsmPViQI8oDyz-7">
          <mxGeometry relative="1" as="geometry" />
        </mxCell>
        <mxCell id="N-s2DV5ZsmPViQI8oDyz-14" value="&lt;span style=&quot;font-size:10.5pt;mso-bidi-font-size:&lt;br/&gt;11.0pt;font-family:&amp;quot;Times New Roman&amp;quot;,serif;mso-fareast-font-family:宋体;&lt;br/&gt;mso-font-kerning:1.0pt;mso-ansi-language:EN-US;mso-fareast-language:ZH-CN;&lt;br/&gt;mso-bidi-language:AR-SA&quot; lang=&quot;EN-US&quot;&gt;DEGs&lt;/span&gt;" style="shape=parallelogram;perimeter=parallelogramPerimeter;whiteSpace=wrap;html=1;fixedSize=1;" vertex="1" parent="1">
          <mxGeometry x="270" y="585" width="120" height="60" as="geometry" />
        </mxCell>
        <mxCell id="N-s2DV5ZsmPViQI8oDyz-22" style="edgeStyle=orthogonalEdgeStyle;rounded=0;orthogonalLoop=1;jettySize=auto;html=1;endArrow=none;endFill=0;startArrow=classic;startFill=1;" edge="1" parent="1" source="N-s2DV5ZsmPViQI8oDyz-19">
          <mxGeometry relative="1" as="geometry">
            <mxPoint x="240" y="610" as="targetPoint" />
          </mxGeometry>
        </mxCell>
        <mxCell id="N-s2DV5ZsmPViQI8oDyz-23" style="edgeStyle=orthogonalEdgeStyle;rounded=0;orthogonalLoop=1;jettySize=auto;html=1;endArrow=none;endFill=0;" edge="1" parent="1" source="N-s2DV5ZsmPViQI8oDyz-19" target="N-s2DV5ZsmPViQI8oDyz-8">
          <mxGeometry relative="1" as="geometry" />
        </mxCell>
        <mxCell id="N-s2DV5ZsmPViQI8oDyz-19" value="&lt;span style=&quot;font-size:10.5pt;mso-bidi-font-size:&lt;br/&gt;11.0pt;font-family:&amp;quot;Times New Roman&amp;quot;,serif;mso-fareast-font-family:宋体;&lt;br/&gt;mso-font-kerning:1.0pt;mso-ansi-language:EN-US;mso-fareast-language:ZH-CN;&lt;br/&gt;mso-bidi-language:AR-SA&quot; lang=&quot;EN-US&quot;&gt;PTDEGs&lt;/span&gt;" style="shape=parallelogram;perimeter=parallelogramPerimeter;whiteSpace=wrap;html=1;fixedSize=1;" vertex="1" parent="1">
          <mxGeometry x="180" y="720" width="120" height="60" as="geometry" />
        </mxCell>
      </root>
    </mxGraphModel>
  </diagram>
</mxfile>
